<?xml version="1.0" encoding="UTF-8"?>
<svg id="Layer_1" data-name="Layer 1" xmlns="http://www.w3.org/2000/svg" viewBox="0 0 66.45 66.45">
  <defs>
    <style>
      .cls-1 {
        fill: #002c41;
      }

      .cls-1, .cls-2 {
        stroke-width: 0px;
      }

      .cls-2 {
        fill: #cdc6a6;
      }
    </style>
  </defs>
  <path class="cls-2" d="M63.2,41.05h0c4.32-4.32,4.32-11.34,0-15.66h0c-2.08-2.08-3.24-4.89-3.24-7.83h0c0-6.12-4.96-11.07-11.07-11.07h0c-2.94,0-5.75-1.17-7.83-3.24h0c-4.32-4.32-11.34-4.32-15.66,0h0c-2.08,2.08-4.89,3.24-7.83,3.24h0c-6.12,0-11.07,4.96-11.07,11.07h0c0,2.94-1.17,5.75-3.24,7.83h0c-4.32,4.32-4.32,11.34,0,15.66h0c2.08,2.08,3.24,4.89,3.24,7.83h0c0,6.12,4.96,11.07,11.07,11.07h0c2.94,0,5.75,1.17,7.83,3.24h0c4.32,4.32,11.34,4.32,15.66,0h0c2.08-2.08,4.89-3.24,7.83-3.24h0c6.12,0,11.07-4.96,11.07-11.07h0c0-2.94,1.17-5.75,3.24-7.83Z"/>
  <path class="cls-1" d="M33.22,7.19c-14.36,0-26.04,11.68-26.04,26.04s11.68,26.04,26.04,26.04,26.04-11.68,26.04-26.04S47.58,7.19,33.22,7.19ZM33.22,8.3c12.09,0,22.19,8.65,24.45,20.08H8.77c2.26-11.43,12.37-20.08,24.45-20.08ZM33.22,58.15c-11.47,0-21.16-7.79-24.05-18.35h48.09c-2.89,10.57-12.58,18.35-24.05,18.35Z"/>
  <path class="cls-1" d="M33.51,16.39c-9.07,0-16.45,7.38-16.45,16.45s7.38,16.45,16.45,16.45,16.45-7.38,16.45-16.45-7.38-16.45-16.45-16.45ZM33.51,48.15c-8.44,0-15.3-6.86-15.3-15.3s6.86-15.3,15.3-15.3,15.3,6.86,15.3,15.3-6.86,15.3-15.3,15.3Z"/>
  <g>
    <path class="cls-1" d="M20.8,45.86l.74.64-.92,3.48h-.1s2.16-2.5,2.16-2.5l.58.5-2.75,3.2-.74-.64.89-3.44h.1s-2.13,2.46-2.13,2.46l-.58-.5,2.75-3.2Z"/>
    <path class="cls-1" d="M25.59,49.31l.45.23-.43,4.5-.77-.38.38-3.04-2.19,2.14-.77-.38,3.33-3.07ZM23.6,51.43l1.99.99-.34.69-1.99-.99.34-.69Z"/>
    <path class="cls-1" d="M27.93,50.38l3.01.76-.19.74-3.01-.76.19-.74ZM28.96,51l.77.19-.95,3.76-.77-.19.95-3.76Z"/>
    <path class="cls-1" d="M32.44,55.37c-.23-.13-.4-.31-.51-.55-.11-.24-.17-.52-.16-.85l.07-2.7.8.02-.07,2.72c0,.24.05.43.18.57.13.14.31.21.54.21.24,0,.42-.06.56-.19.13-.13.2-.32.21-.56l.07-2.72.8.02-.07,2.7c0,.33-.08.61-.2.85-.13.23-.31.41-.54.52-.23.12-.51.17-.84.16-.33,0-.6-.08-.83-.21Z"/>
    <path class="cls-1" d="M36.35,51.2l.78-.17.91,4.13-.78.17-.91-4.13ZM37.04,52.85l1.44-.32c.08-.02.15-.05.2-.11.05-.05.09-.12.1-.2.02-.08.02-.17,0-.27-.02-.1-.06-.18-.11-.24-.05-.07-.11-.11-.18-.14-.07-.03-.14-.03-.23-.01l-1.44.32-.17-.75,1.5-.33c.23-.05.44-.04.63.02.19.06.36.18.5.34.14.17.23.37.29.62.05.25.05.47,0,.68-.05.21-.16.38-.31.52-.15.14-.34.24-.56.29l-1.5.33-.17-.75ZM38.04,53.28l.8-.31,1.54,1.67-.94.21-1.4-1.57Z"/>
    <path class="cls-1" d="M41.64,49.57l.45-.22,3.31,3.08-.77.38-2.18-2.15.36,3.04-.77.38-.41-4.51ZM42.11,52.43l2-.98.34.69-2,.98-.34-.69Z"/>
    <path class="cls-1" d="M44.47,47.95l.61-.51,2.69,3.26-.61.51-2.69-3.26ZM46.94,50.39l1.91-1.58.49.59-1.91,1.58-.49-.59Z"/>
  </g>
  <g>
    <path class="cls-1" d="M13.38,26.28l.13-.38,2.04.68-.13.38-2.04-.68ZM13.42,26.14l.41-1.23.37.12-.41,1.23-.37-.12ZM14.27,26.42l.36-1.07.37.12-.36,1.07-.37-.12ZM15.1,26.69l.41-1.23.37.12-.41,1.23-.37-.12Z"/>
    <path class="cls-1" d="M14.18,24.04l.21-.45h1.83s.02.03.02.03l-1.52-.73.17-.35,1.94.92-.21.45-1.81.02-.02-.05,1.5.71-.17.35-1.94-.92Z"/>
    <path class="cls-1" d="M15.32,21.78l.22-.35,1.46.39-.96-1.16.22-.35,1.43,1.76-.17.27-2.2-.55Z"/>
    <path class="cls-1" d="M18.66,20.69l-.25.34-1.73-1.28.25-.34,1.73,1.28Z"/>
    <path class="cls-1" d="M17.56,18.62l.27-.3,1.58,1.46-.27.3-1.58-1.46ZM18.33,19.11l.51-.55s.05-.06.05-.1c0-.04,0-.08-.02-.11-.02-.04-.04-.08-.08-.11-.04-.03-.08-.06-.12-.07-.04-.01-.08-.02-.11,0-.04,0-.07.03-.1.06l-.51.55-.29-.26.53-.57c.08-.09.17-.15.27-.18.1-.03.2-.03.31,0,.1.03.2.09.3.17.09.09.16.18.2.28.04.1.05.2.02.31-.02.1-.07.2-.15.28l-.53.57-.29-.26ZM18.88,19l.24-.36,1.13.25-.33.36-1.04-.25Z"/>
    <path class="cls-1" d="M20.88,18.21c-.13.03-.26.02-.39-.03-.13-.05-.24-.13-.35-.25l-.4-.46c-.1-.12-.17-.25-.2-.38-.03-.13-.02-.26.03-.39.05-.13.13-.24.25-.34.12-.1.24-.17.38-.19.13-.03.26-.02.39.03.13.05.24.13.35.25l.4.46c.1.12.17.25.2.38.03.13.02.26-.03.39-.05.13-.13.24-.25.34-.12.1-.24.17-.38.19ZM21.11,17.54c.02-.06.03-.12.01-.18-.01-.06-.05-.12-.09-.18l-.41-.48c-.05-.06-.1-.1-.16-.12-.06-.02-.12-.03-.18-.02-.06.01-.12.04-.18.09-.06.05-.09.1-.12.16-.02.06-.03.12-.01.18.01.06.05.12.09.18l.41.48c.05.06.1.1.16.12.06.02.12.03.18.02.06-.01.12-.04.18-.09.06-.05.09-.1.12-.16Z"/>
    <path class="cls-1" d="M21.22,15.26l.41-.27,1.58.93v.05s-.94-1.41-.94-1.41l.32-.21,1.19,1.79-.42.27-1.56-.92v-.05s.92,1.39.92,1.39l-.32.21-1.19-1.79Z"/>
    <path class="cls-1" d="M24.74,13.24l.48-.23.93,1.94-.33.16-.72-1.51.05.08.21,1.38-.32.16-.94-1-.04-.12.72,1.51-.33.16-.93-1.94.48-.23,1,1.13-.26-1.49Z"/>
    <path class="cls-1" d="M26.2,12.63l.38-.13.68,2.04-.38.13-.68-2.04ZM26.34,12.58l1.23-.41.12.37-1.23.41-.12-.37ZM26.62,13.43l1.07-.36.12.37-1.07.36-.12-.37ZM26.89,14.25l1.23-.41.12.37-1.23.41-.12-.37Z"/>
    <path class="cls-1" d="M28.47,11.93l.49-.1,1.11,1.46-.03.04-.33-1.65.38-.08.43,2.11-.49.1-1.1-1.43.03-.04.33,1.63-.38.08-.43-2.11Z"/>
    <path class="cls-1" d="M30.94,11.49l1.57-.13.03.39-1.57.13-.03-.39ZM31.54,11.61l.4-.03.16,1.97-.4.03-.16-1.97Z"/>
    <path class="cls-1" d="M33.77,11.35h.26s.78,2.17.78,2.17h-.44s-.48-1.49-.48-1.49l-.55,1.46h-.44s.87-2.14.87-2.14ZM33.31,12.76l1.13.02v.39s-1.14-.02-1.14-.02v-.39Z"/>
    <path class="cls-1" d="M35.66,11.46l.4.06-.29,2.13-.4-.06.29-2.13ZM35.6,13.23l1.25.17-.05.39-1.25-.17.05-.39Z"/>
    <path class="cls-1" d="M37.92,11.82l.39.1-.52,2.09-.39-.1.52-2.09ZM37.66,13.58l1.22.31-.1.38-1.22-.31.1-.38Z"/>
    <path class="cls-1" d="M40.24,13.89l-.28.78-.38-.14.28-.78-.15-1.46.4.14.07,1.01.7-.73.4.14-1.04,1.03Z"/>
    <path class="cls-1" d="M43.08,13.7l.35.2-1.05,1.88-.35-.2,1.05-1.88ZM42.77,14.56l.96.54-.19.34-.96-.54.19-.34ZM43.21,13.77l1.1.62-.19.34-1.1-.62.19-.34Z"/>
    <path class="cls-1" d="M45.04,14.85l.33.24-1.26,1.75-.33-.24,1.26-1.75ZM44.65,15.67l.61.44s.07.04.11.04c.04,0,.07,0,.11-.03.04-.02.07-.05.1-.09.03-.04.05-.08.06-.12,0-.04,0-.08,0-.11-.01-.04-.04-.07-.07-.09l-.61-.44.23-.32.63.46c.1.07.16.15.21.25.04.1.05.2.04.31-.02.11-.06.21-.14.32-.08.1-.16.18-.26.23s-.2.07-.3.06c-.1,0-.2-.05-.3-.12l-.63-.46.23-.32ZM44.83,16.2l.39.2-.11,1.15-.4-.29.12-1.06Z"/>
    <path class="cls-1" d="M45.91,18.25l-.32-.28,1.41-1.63.32.28-1.41,1.63Z"/>
    <path class="cls-1" d="M48.02,17.26l.28.29-1.55,1.5-.28-.29,1.55-1.5ZM46.86,18.59l.9.93-.28.27-.9-.93.28-.27ZM47.49,17.99l.79.81-.28.27-.79-.81.28-.27ZM48.13,17.37l.9.93-.28.27-.9-.93.28-.27Z"/>
    <path class="cls-1" d="M49.64,19.01l.3.4-.83,1.63h-.05s1.35-1.02,1.35-1.02l.23.31-1.72,1.3-.3-.4.81-1.62h.05s-1.33,1.01-1.33,1.01l-.23-.31,1.72-1.3Z"/>
    <path class="cls-1" d="M51.21,21.2l.2.35-1.87,1.07-.2-.35,1.87-1.07ZM49.78,22.26l.26.45c.07.12.15.19.24.22.09.03.19.02.29-.04l.55-.31c.1-.06.16-.14.18-.23.02-.1,0-.2-.07-.32l-.26-.45.34-.19.25.44c.09.16.14.3.15.44.01.14-.02.27-.08.38-.07.11-.17.21-.31.29l-.53.3c-.13.08-.27.12-.4.12-.13,0-.26-.04-.38-.11-.12-.08-.22-.2-.32-.36l-.25-.44.34-.19Z"/>
    <path class="cls-1" d="M52.4,23.41l.16.37-1.98.85-.16-.37,1.98-.85ZM50.85,24.28l.5,1.16-.36.15-.5-1.16.36-.15Z"/>
    <path class="cls-1" d="M52.17,26.51l-.79.25-.12-.39.79-.25,1.07-1,.13.4-.76.67,1.01.11.13.4-1.45-.2Z"/>
  </g>
  <circle class="cls-1" cx="33.53" cy="33.3" r="11.54"/>
  <g>
    <path class="cls-2" d="M11.84,35.95h-.86v-3.56l-.56.21v-.92l.68-.31h.74v4.58Z"/>
    <path class="cls-2" d="M13.7,35.65c-.23-.23-.35-.55-.35-.96v-2.08c0-.41.12-.73.35-.96.23-.23.57-.34,1.02-.34s.79.11,1.02.34c.23.23.35.55.35.96v2.08c0,.41-.12.73-.35.96-.23.23-.57.34-1.02.34s-.79-.11-1.02-.34ZM15.1,34.99c.08-.12.12-.29.12-.51v-1.64c0-.22-.04-.39-.12-.51-.08-.12-.21-.18-.38-.18s-.3.06-.38.18c-.08.12-.12.29-.12.51v1.64c0,.22.04.39.12.51.08.12.21.18.38.18s.3-.06.38-.18Z"/>
    <path class="cls-2" d="M17.72,35.65c-.23-.23-.35-.55-.35-.96v-2.08c0-.41.12-.73.35-.96.23-.23.57-.34,1.02-.34s.79.11,1.02.34c.23.23.35.55.35.96v2.08c0,.41-.12.73-.35.96-.23.23-.57.34-1.02.34s-.79-.11-1.02-.34ZM19.12,34.99c.08-.12.12-.29.12-.51v-1.64c0-.22-.04-.39-.12-.51-.08-.12-.21-.18-.38-.18s-.3.06-.38.18c-.08.12-.12.29-.12.51v1.64c0,.22.04.39.12.51.08.12.21.18.38.18s.3-.06.38-.18Z"/>
    <path class="cls-2" d="M21.58,33.12c-.14-.14-.22-.34-.22-.59v-.39c0-.25.07-.45.22-.59.14-.14.35-.21.61-.21s.47.07.61.21c.14.14.21.34.21.6v.39c0,.26-.07.45-.22.59-.14.14-.35.21-.61.21s-.47-.07-.61-.21ZM24.16,31.37h.78l-2.39,4.58h-.78l2.39-4.58ZM22.29,32.63s.04-.08.04-.14v-.35c0-.05-.01-.1-.04-.13-.02-.03-.06-.05-.11-.05s-.08.02-.11.05c-.02.03-.04.08-.04.13v.34c0,.06.01.11.04.14.02.03.06.05.11.05s.08-.02.11-.05ZM23.85,35.78c-.14-.14-.22-.34-.22-.59v-.39c0-.25.07-.45.22-.59.14-.14.35-.21.61-.21s.47.07.61.21c.14.14.21.34.21.6v.39c0,.26-.07.45-.22.59-.14.14-.35.21-.61.21s-.47-.07-.61-.21ZM24.57,35.3s.04-.08.04-.14v-.35c0-.05-.01-.1-.04-.13-.02-.03-.06-.05-.11-.05s-.08.02-.11.05c-.02.03-.04.08-.04.13v.34c0,.06.01.11.04.14.02.03.06.05.11.05s.08-.02.11-.05Z"/>
    <path class="cls-2" d="M42.9,31.37h.86v4.58h-.86v-4.58ZM43.22,31.37h2.75v.83h-2.75v-.83ZM43.22,33.26h2.41v.83h-2.41v-.83ZM43.22,35.12h2.75v.83h-2.75v-.83Z"/>
    <path class="cls-2" d="M48.02,35.79c-.25-.13-.44-.33-.57-.58-.13-.25-.2-.56-.2-.92v-1.26c0-.36.07-.67.2-.92.13-.25.32-.45.57-.58.25-.13.55-.2.89-.2.29,0,.54.06.77.19.23.12.41.3.56.54.15.24.25.52.31.85h-.89c-.03-.15-.09-.28-.16-.39-.07-.11-.16-.19-.25-.25-.1-.06-.21-.08-.34-.08-.16,0-.3.03-.41.1-.11.07-.2.16-.26.29-.06.13-.09.28-.09.46v1.26c0,.18.03.33.09.46.06.13.15.22.26.29.11.07.25.1.41.1.13,0,.24-.03.34-.08.1-.06.19-.14.25-.24s.12-.24.15-.39h.89c-.06.33-.16.62-.31.85-.15.24-.33.42-.56.54-.23.12-.48.19-.77.19-.35,0-.65-.07-.89-.2Z"/>
    <path class="cls-2" d="M52.5,35.78c-.25-.14-.45-.34-.59-.59-.14-.25-.21-.55-.21-.89v-1.3c0-.34.07-.63.21-.89.14-.25.33-.45.59-.59.25-.14.54-.21.88-.21s.62.07.88.21c.25.14.45.34.59.59.14.25.21.55.21.89v1.3c0,.34-.07.63-.21.89-.14.25-.33.45-.59.59-.25.14-.55.21-.88.21s-.62-.07-.88-.21ZM53.79,35.03c.12-.07.21-.16.27-.28.06-.12.1-.26.1-.42v-1.34c0-.16-.03-.3-.1-.42-.06-.12-.15-.22-.27-.28-.12-.07-.25-.1-.41-.1s-.29.03-.41.1c-.12.07-.21.16-.27.28-.06.12-.1.26-.1.42v1.34c0,.16.03.3.1.42.06.12.15.22.27.28.12.07.25.1.41.1s.29-.03.41-.1Z"/>
  </g>
  <g>
    <path class="cls-2" d="M36,32.92c-.13-.13-.34-.13-.47,0l-1.31,1.31v-3.54c0-.18-.15-.33-.33-.33s-.33.15-.33.33v.81l-.76-.76c-.11-.11-.29-.11-.4,0l-.07.07c-.11.11-.11.29,0,.4l1.16,1.16s.04.03.07.04v1.86l-1.36-1.36c-.13-.13-.34-.13-.47,0-.13.13-.13.34,0,.47l1.71,1.71s.07.06.12.07v5.91c0,.18.15.33.33.33s.33-.15.33-.33v-5.94s.05-.03.07-.05l1.71-1.71c.13-.13.13-.34,0-.47Z"/>
    <path class="cls-2" d="M33.87,38.47c-3.21,0-5.81-2.61-5.81-5.81s2.61-5.81,5.81-5.81,5.81,2.61,5.81,5.81-2.61,5.81-5.81,5.81ZM33.87,27.4c-2.9,0-5.26,2.36-5.26,5.26s2.36,5.26,5.26,5.26,5.26-2.36,5.26-5.26-2.36-5.26-5.26-5.26Z"/>
  </g>
</svg>