<?xml version="1.0" encoding="UTF-8"?>
<svg id="Layer_1" data-name="Layer 1" xmlns="http://www.w3.org/2000/svg" viewBox="0 0 170.2 55.04">
  <defs>
    <style>
      .cls-1 {
        fill: #70767a;
      }

      .cls-1, .cls-2, .cls-3, .cls-4, .cls-5, .cls-6 {
        stroke-width: 0px;
      }

      .cls-2 {
        fill: #00354b;
      }

      .cls-3 {
        fill: #43494e;
      }

      .cls-4 {
        fill: #002c41;
      }

      .cls-5 {
        fill: #cdc6a6;
      }

      .cls-6 {
        fill: #001d30;
      }
    </style>
  </defs>
  <g>
    <path class="cls-3" d="M70.45,9.17c-.32.08-1.3.32-2.3.32-2.25,0-3.26-1.52-3.26-4.1,0-2.1.68-3.52,2.98-3.52,1.65,0,2.45.73,2.51,1.65h-1.08c-.05-.43-.31-1.15-1.46-1.15-1.71,0-1.89,1.75-1.89,2.94,0,1.84.58,3.7,2.69,3.7.36,0,.54-.02.85-.1v-2.34c0-.87-.15-.95-1.11-1.11v-.19h2.06v3.91Z"/>
    <path class="cls-3" d="M73.46,3.15c0-.77-.18-.79-1.11-.98v-.19h3.11c1.34,0,2.45.32,2.45,1.9,0,1.25-.93,1.66-1.9,1.79l2.22,3.7h-1.07l-2.19-3.63h-.55v3.63h-.95V3.15ZM74.42,5.31h.3c.78,0,2.12,0,2.12-1.54,0-1.04-.78-1.36-1.63-1.36-.74,0-.78.09-.78.74v2.16Z"/>
    <path class="cls-3" d="M85.66,6.64c0,1.35,0,2.85-2.47,2.85s-2.53-1.28-2.53-2.81v-3.45c0-.76-.35-.73-1.1-.81v-.19l2.05-.25v4.7c0,.8,0,2.38,1.59,2.38,1.81,0,1.81-1.26,1.81-2.29V1.98h.65v4.65Z"/>
    <path class="cls-3" d="M88.69,3.15c0-.67-.15-.84-1.1-.98v-.19h2.66c1.33,0,2.98,0,2.98,1.92s-1.76,1.91-3.09,1.91h-.5v3.56h-.95V3.15ZM89.65,5.39h.47c1.02,0,2.04-.07,2.04-1.48,0-1.09-.6-1.49-1.58-1.49-.88,0-.93.1-.93.74v2.24Z"/>
    <path class="cls-3" d="M95.21,5.68c0-2.35.69-3.82,2.87-3.82s2.85,1.63,2.85,3.82c0,2.33-.68,3.81-2.85,3.81s-2.87-1.63-2.87-3.81ZM99.86,5.68c0-1.38-.08-3.39-1.78-3.39s-1.8,1.88-1.8,3.39c0,1.37.08,3.38,1.8,3.38s1.78-1.88,1.78-3.38Z"/>
  </g>
  <g>
    <path class="cls-4" d="M77.39,20.29c-1.06-.48-3.25-1.4-5.64-1.4s-4.13,1.33-4.13,3.42c0,5.4,11.28,4.71,11.28,12.2,0,4.72-3.9,6.59-8.3,6.59-2.39,0-4.89-.55-5.47-.68v-2.36c1.26.61,3.62,1.5,5.95,1.5,3.01,0,4.78-1.43,4.78-4.34,0-5.77-10.97-4.92-10.97-12.09,0-3.72,2.91-5.77,7.45-5.77,2.22,0,4.07.34,5.06.55v2.39Z"/>
    <path class="cls-4" d="M83.37,21.31c0-1.95-.48-2.6-3.45-3.01v-.58h16.13l.17,4.17h-1.06c-.34-1.78-.31-2.84-3.14-2.84h-3.59c-1.95,0-2.08.41-2.08,2.26v6.73h4.34c2.84,0,3.07-1.23,3.35-2.84h.78v7.07h-.78c-.34-1.98-.44-2.9-3.35-2.9h-4.34v8.03c0,1.98.31,1.98,2.8,1.98h3.69c2.32,0,2.5-.72,2.97-3.32h1.06l-.24,4.65h-13.26v-19.41Z"/>
    <path class="cls-4" d="M101.72,21.62c0-2.36-1.06-2.25-3.42-2.53v-.58l6.39-.79v18.65c0,2.8,0,3.01,2.8,3.01h3.04c2.56,0,2.67-1.44,2.94-3.73h1.06l-.17,5.06h-12.64v-19.1Z"/>
    <path class="cls-4" d="M118.23,21.31c0-1.95-.48-2.6-3.45-3.01v-.58h16.13l.17,4.17h-1.06c-.34-1.78-.31-2.84-3.14-2.84h-3.59c-1.95,0-2.08.41-2.08,2.26v6.73h4.34c2.84,0,3.08-1.23,3.35-2.84h.79v7.07h-.79c-.34-1.98-.44-2.9-3.35-2.9h-4.34v8.03c0,1.98.31,1.98,2.8,1.98h3.69c2.32,0,2.49-.72,2.97-3.32h1.06l-.24,4.65h-13.26v-19.41Z"/>
    <path class="cls-4" d="M151.44,40.14c-1.64.55-3.25.96-6.42.96-6.42,0-9.91-5.71-9.91-12.64,0-6.22,2.08-11.1,9.09-11.1,5.16,0,7.01,2.7,7.24,5.02h-3.35c-.17-1.06-.75-3.48-4.1-3.48-3.62,0-5.54,3.45-5.54,8.68,0,4.85.96,11.99,8.44,11.99,2.02,0,4.13-.72,4.55-.85v1.43Z"/>
    <path class="cls-4" d="M159.95,19.06h-3.07c-2.87,0-2.94,1.23-3.14,3.31h-1.06l.17-4.65h17.19l.17,4.65h-1.06c-.21-2.08-.21-3.31-3.14-3.31h-3.08v21.66h-2.97v-21.66Z"/>
  </g>
  <g>
    <path class="cls-5" d="M55.04,27.52c0,15.2-12.32,27.52-27.52,27.52S0,42.72,0,27.52,12.32,0,27.52,0s27.52,12.32,27.52,27.52Z"/>
    <path class="cls-4" d="M15.94,37.97l-5.85-10.02h9.03l6.27,10.02h-9.45Z"/>
    <path class="cls-4" d="M22.46,46.48l-3.85-4.56h9.03l4.27,4.56h-9.45Z"/>
    <path class="cls-6" d="M33.82,25l-8.36,12.98h-9.53l13.15-19.84,4.73,6.86Z"/>
    <path class="cls-6" d="M27.19,14.82l-8.07,13.13h-9.03L23.13,7.84l4.06,6.98Z"/>
    <path class="cls-6" d="M44.96,27.95l-12.97,18.53h-9.53l13.26-18.53h9.24Z"/>
    <path class="cls-2" d="M29.09,18.15h9.19l6.68,9.87h-9.24l-6.63-9.87Z"/>
    <path class="cls-2" d="M31.31,7.89l4.4,7.02h-8.52l-4.06-7.02h8.18Z"/>
  </g>
  <g>
    <path class="cls-1" d="M64.88,53.35c.2,0,.36-.03.47-.11.06-.04.1-.11.13-.19.02-.08.04-.19.04-.33v-3.51c0-.28-.06-.46-.17-.53-.11-.07-.27-.1-.47-.09v-.15h3.33l.05.93h-.19c-.07-.43-.35-.64-.85-.63h-.65c-.18,0-.29.03-.34.11-.05.08-.07.26-.07.53v1.33h.94c.25,0,.42-.04.52-.13.1-.09.15-.26.15-.51h.16v1.57h-.16c0-.21-.05-.37-.15-.48-.1-.11-.27-.16-.52-.16h-.94v1.57c0,.28.02.46.08.54.04.07.15.1.33.1h.7c.28,0,.49-.05.64-.16.14-.11.23-.29.27-.55h.18l-.05,1h-3.44v-.15Z"/>
    <path class="cls-1" d="M71.51,53.35c.2,0,.36-.03.47-.11.06-.04.1-.11.13-.19.02-.08.04-.19.04-.33v-3.51c0-.28-.06-.46-.17-.53-.11-.07-.27-.1-.47-.09v-.15h1.53l1.44,4.32h.01l1.43-4.32h1.52v.15c-.2,0-.36.03-.47.09-.05.03-.09.1-.13.18-.03.09-.04.21-.04.35v3.51c0,.27.06.44.17.52.11.08.27.11.47.11v.15h-1.89v-.15c.2,0,.36-.03.47-.11.06-.04.1-.11.13-.19.02-.08.04-.19.04-.33v-3.85h-.01l-1.53,4.62h-.54l-1.53-4.62h-.01v3.85c0,.27.06.44.18.52.11.08.27.11.46.11v.15h-1.69v-.15Z"/>
    <path class="cls-1" d="M80.37,53.35c.2,0,.36-.03.47-.11.06-.04.1-.11.13-.19.02-.08.04-.19.04-.33v-3.51c0-.28-.06-.46-.17-.53-.11-.07-.27-.1-.47-.09v-.15h1.8c.15,0,.33,0,.52.01.2.02.39.07.58.14.19.07.35.19.48.36.12.17.18.41.19.71,0,.19-.03.35-.08.48-.05.13-.12.24-.21.33-.19.17-.38.27-.57.33h0c.13.03.27.07.4.12.13.05.25.13.36.24.23.2.35.52.36.98,0,.31-.06.55-.19.73-.13.19-.29.33-.48.42-.2.08-.4.14-.62.17-.22.02-.43.04-.62.04h-1.92v-.15ZM81.66,50.68h.34c.11,0,.24,0,.38-.02.14-.01.28-.05.41-.11.14-.06.25-.15.33-.29.08-.14.12-.32.13-.56,0-.2-.03-.36-.08-.49-.06-.12-.13-.22-.23-.3-.21-.13-.46-.19-.77-.19-.22,0-.36.03-.42.1-.06.08-.09.26-.09.54v1.31ZM81.66,52.56c0,.27.02.45.09.52.06.08.24.12.54.12.32,0,.6-.07.84-.23.24-.16.37-.44.38-.83,0-.27-.05-.49-.14-.65-.1-.16-.22-.27-.37-.34-.15-.08-.32-.12-.49-.14-.17-.01-.34-.02-.51-.02h-.34v1.59Z"/>
    <path class="cls-1" d="M87.1,53.35c.15,0,.27-.02.36-.06.09-.03.16-.08.22-.14.06-.07.12-.16.16-.27.05-.11.09-.23.14-.37l1.52-4.14h.41l1.53,4.2c.08.24.19.43.31.57.12.14.3.21.53.21v.15h-1.91v-.15c.13,0,.24-.02.35-.05.11-.04.16-.1.17-.2,0-.12-.03-.22-.06-.32l-.34-.96h-1.85l-.32.9c-.06.14-.09.25-.09.36,0,.11.05.18.15.22.1.03.23.05.37.05v.15h-1.66v-.15ZM88.74,51.52h1.64l-.82-2.32-.83,2.32Z"/>
    <path class="cls-1" d="M95.05,53.35c.2,0,.36-.03.47-.11.06-.04.1-.11.13-.19.02-.08.04-.19.04-.33v-3.51c0-.28-.06-.46-.17-.53-.11-.07-.27-.1-.47-.09v-.15h1.93v.15c-.2,0-.36.03-.47.09-.05.03-.09.1-.12.18-.03.09-.05.21-.05.35v3.51c0,.21.02.34.09.4.06.06.19.09.41.08h.5c.3,0,.52-.06.64-.19.11-.13.19-.33.24-.61h.18l-.05,1.09h-3.3v-.15Z"/>
    <path class="cls-1" d="M101.19,53.35c.15,0,.27-.02.36-.06.09-.03.16-.08.22-.14.06-.07.12-.16.16-.27.05-.11.09-.23.14-.37l1.52-4.14h.41l1.53,4.2c.08.24.19.43.31.57.12.14.3.21.53.21v.15h-1.91v-.15c.13,0,.24-.02.35-.05.11-.04.16-.1.17-.2,0-.12-.03-.22-.06-.32l-.34-.96h-1.85l-.32.9c-.06.14-.09.25-.09.36,0,.11.05.18.15.22.1.03.23.05.37.05v.15h-1.66v-.15ZM102.84,51.52h1.64l-.82-2.32-.83,2.32Z"/>
    <path class="cls-1" d="M112.85,53.35c-.31.14-.78.21-1.39.22-1.53-.02-2.3-.93-2.3-2.73-.01-.81.14-1.43.45-1.85.31-.42.88-.62,1.72-.62.58,0,1.05.08,1.41.2l.06,1.2h-.18c-.01-.12-.05-.24-.09-.38-.06-.13-.13-.24-.24-.35-.1-.12-.24-.21-.41-.28-.17-.07-.39-.1-.65-.1-.31,0-.56.06-.74.19-.18.13-.31.3-.4.51-.08.21-.14.43-.17.67-.03.24-.04.48-.04.72s.02.5.06.79c.04.28.12.55.23.81.12.25.3.46.53.63.23.17.53.26.91.26.28,0,.47-.02.59-.06v-1.7c0-.28-.06-.45-.18-.53-.12-.07-.28-.1-.46-.09v-.15h1.91v.15c-.09,0-.17,0-.24,0-.04,0-.07.01-.1.02-.04.02-.07.04-.1.06-.06.03-.1.1-.13.18-.03.09-.05.21-.05.35v1.88Z"/>
    <path class="cls-1" d="M116.46,53.35c.2,0,.36-.03.47-.11.06-.04.1-.11.13-.19.02-.08.04-.19.04-.33v-3.51c0-.28-.06-.46-.17-.53-.11-.07-.27-.1-.47-.09v-.15h3.33l.05.93h-.19c-.07-.43-.35-.64-.85-.63h-.65c-.18,0-.29.03-.34.11-.05.08-.07.26-.07.53v1.33h.94c.25,0,.42-.04.52-.13.1-.09.15-.26.15-.51h.16v1.57h-.16c0-.21-.05-.37-.15-.48-.1-.11-.27-.16-.52-.16h-.94v1.57c0,.28.02.46.08.54.04.07.15.1.33.1h.7c.28,0,.49-.05.64-.16.14-.11.23-.29.27-.55h.18l-.05,1h-3.44v-.15Z"/>
    <path class="cls-1" d="M123.12,53.35c.2,0,.36-.03.47-.11.06-.04.1-.11.13-.19.02-.08.04-.19.04-.33v-3.51c0-.28-.06-.46-.17-.53-.11-.07-.27-.1-.47-.09v-.15h1.34l2.26,4.08h.02v-3.31c0-.28-.06-.46-.17-.53-.11-.07-.27-.1-.47-.09v-.15h1.7v.15c-.2,0-.36.03-.47.09-.05.03-.09.1-.12.18-.03.09-.05.21-.05.35v4.29h-.54l-2.42-4.36h-.01v3.59c0,.27.06.44.17.52.11.08.27.11.47.11v.15h-1.69v-.15Z"/>
    <path class="cls-1" d="M133.8,49.53c-.01-.11-.04-.21-.09-.32-.05-.1-.12-.19-.2-.27-.18-.18-.46-.27-.86-.28-.25,0-.46.07-.64.22-.19.15-.28.35-.29.61,0,.17.05.3.15.42.09.12.22.23.37.33.16.09.32.18.5.26.17.09.34.19.49.28.3.16.53.34.71.54.17.2.26.48.27.84,0,.47-.18.83-.52,1.07-.34.23-.77.35-1.29.35-.26,0-.51-.03-.74-.07-.24-.03-.42-.06-.52-.07l-.05-1.07h.19c.02.1.05.2.11.3.06.11.13.2.22.29.18.19.47.28.86.29.33,0,.59-.1.78-.29.19-.18.28-.41.29-.67,0-.2-.07-.38-.19-.53-.13-.15-.29-.27-.5-.39-.2-.11-.4-.23-.62-.34-.22-.11-.42-.23-.6-.36-.16-.13-.28-.27-.36-.43-.08-.16-.12-.35-.12-.59,0-.46.17-.79.48-.99.3-.2.69-.3,1.17-.3.46,0,.84.05,1.14.13l.05,1.04h-.18Z"/>
  </g>
</svg>